HIERARCHY
ROOT reference
{
  OFFSET 0 0 0
  CHANNELS 6 Xposition Yposition Zposition Zrotation Xrotation Yrotation
  JOINT Hips
  {
    OFFSET 370.543 87.5 183.721
    CHANNELS 3 Zrotation Xrotation Yrotation
    JOINT RightUpLeg
    {
      OFFSET -9.29072 -1.53718 -0.00769521
      CHANNELS 3 Zrotation Xrotation Yrotation
      JOINT RightLeg
      {
        OFFSET 0.000649198 -41.8926 0.0287464
        CHANNELS 3 Zrotation Xrotation Yrotation
        JOINT RightFoot
        {
          OFFSET -0.131981 -42.8927 0.241786
          CHANNELS 3 Zrotation Xrotation Yrotation
          End Site
          {
            OFFSET 0 -7.69 17.5
          }
        }
      }
    }
    JOINT LeftUpLeg
    {
      OFFSET 9.29816 -1.6623 -0.0330144
      CHANNELS 3 Zrotation Xrotation Yrotation
      JOINT LeftLeg
      {
        OFFSET 0.0555409 -41.8801 -0.0492089
        CHANNELS 3 Zrotation Xrotation Yrotation
        JOINT LeftFoot
        {
          OFFSET 0.737583 -41.1094 -0.206555
          CHANNELS 3 Zrotation Xrotation Yrotation
          End Site
          {
            OFFSET 0 -7.69 17.5
          }
        }
      }
    }
    JOINT Spine
    {
      OFFSET 0.0742767 14.2946 0.0485675
      CHANNELS 3 Zrotation Xrotation Yrotation
      JOINT Spine1
      {
        OFFSET 0.0332084 9.70841 0.0159593
        CHANNELS 3 Zrotation Xrotation Yrotation
        JOINT Spine2
        {
          OFFSET 0.0388468 10.1231 0.00288192
          CHANNELS 3 Zrotation Xrotation Yrotation
          JOINT Spine3
          {
            OFFSET 0.0300771 9.71993 0.00776905
            CHANNELS 3 Zrotation Xrotation Yrotation
            JOINT Neck
            {
              OFFSET 0.058413 10.382 0.0516165
              CHANNELS 3 Zrotation Xrotation Yrotation
              JOINT Head
              {
                OFFSET 0.0298281 9.47849 0.0268718
                CHANNELS 3 Zrotation Xrotation Yrotation
                End Site
                {
                  OFFSET 0 15.95 0
                }
              }
            }
            JOINT RightShoulder
            {
              OFFSET -3.15612 6.91385 0.0353801
              CHANNELS 3 Zrotation Xrotation Yrotation
              JOINT RightArm
              {
                OFFSET -12.7781 -0.0057607 0.0332486
                CHANNELS 3 Zrotation Xrotation Yrotation
                JOINT RightForeArm
                {
                  OFFSET -26.4999 -0.0425897 0.0409183
                  CHANNELS 3 Zrotation Xrotation Yrotation
                  JOINT RightHand
                  {
                    OFFSET -25.993 -0.0294641 0.00108206
                    CHANNELS 3 Zrotation Xrotation Yrotation
                    JOINT RightHandThumb1
                    {
                      OFFSET -2.48905 0.190105 3.12053
                      CHANNELS 3 Zrotation Xrotation Yrotation
                      JOINT RightHandThumb2
                      {
                        OFFSET -3.68274 0 0
                        CHANNELS 3 Zrotation Xrotation Yrotation
                        JOINT RightHandThumb3
                        {
                          OFFSET -2.55832 0 0
                          CHANNELS 3 Zrotation Xrotation Yrotation
                          End Site
                          {
                            OFFSET -2.194 0 0
                          }
                        }
                      }
                    }
                    JOINT RightInHandIndex
                    {
                      OFFSET -3.22368 0.508421 1.97842
                      CHANNELS 3 Zrotation Xrotation Yrotation
                      JOINT RightHandIndex1
                      {
                        OFFSET -5.21684 -0.091368 0.999158
                        CHANNELS 3 Zrotation Xrotation Yrotation
                        JOINT RightHandIndex2
                        {
                          OFFSET -3.61937 0 0
                          CHANNELS 3 Zrotation Xrotation Yrotation
                          JOINT RightHandIndex3
                          {
                            OFFSET -2.0521 0 0
                            CHANNELS 3 Zrotation Xrotation Yrotation
                            End Site
                            {
                              OFFSET -1.805 0 0
                            }
                          }
                        }
                      }
                    }
                    JOINT RightInHandMiddle
                    {
                      OFFSET -3.38211 0.517263 0.756737
                      CHANNELS 3 Zrotation Xrotation Yrotation
                      JOINT RightHandMiddle1
                      {
                        OFFSET -5.17411 -0.084 0.313895
                        CHANNELS 3 Zrotation Xrotation Yrotation
                        JOINT RightHandMiddle2
                        {
                          OFFSET -3.94947 0 0
                          CHANNELS 3 Zrotation Xrotation Yrotation
                          JOINT RightHandMiddle3
                          {
                            OFFSET -2.47579 0 0
                            CHANNELS 3 Zrotation Xrotation Yrotation
                            End Site
                            {
                              OFFSET -1.975 0 0
                            }
                          }
                        }
                      }
                    }
                    JOINT RightInHandRing
                    {
                      OFFSET -3.36516 0.537895 -0.128947
                      CHANNELS 3 Zrotation Xrotation Yrotation
                      JOINT RightHandRing1
                      {
                        OFFSET -4.63474 -0.022105 -0.478947
                        CHANNELS 3 Zrotation Xrotation Yrotation
                        JOINT RightHandRing2
                        {
                          OFFSET -3.44238 0 0
                          CHANNELS 3 Zrotation Xrotation Yrotation
                          JOINT RightHandRing3
                          {
                            OFFSET -2.3881 0 0
                            CHANNELS 3 Zrotation Xrotation Yrotation
                            End Site
                            {
                              OFFSET -1.857 0 0
                            }
                          }
                        }
                      }
                    }
                    JOINT RightInHandPinky
                    {
                      OFFSET -3.16105 0.469368 -1.20179
                      CHANNELS 3 Zrotation Xrotation Yrotation
                      JOINT RightHandPinky1
                      {
                        OFFSET -4.14105 -0.022105 -1.09053
                        CHANNELS 3 Zrotation Xrotation Yrotation
                        JOINT RightHandPinky2
                        {
                          OFFSET -2.75653 0 0
                          CHANNELS 3 Zrotation Xrotation Yrotation
                          JOINT RightHandPinky3
                          {
                            OFFSET -1.74189 0 0
                            CHANNELS 3 Zrotation Xrotation Yrotation
                            End Site
                            {
                              OFFSET -1.645 0 0
                            }
                          }
                        }
                      }
                    }
                  }
                }
              }
            }
            JOINT LeftShoulder
            {
              OFFSET 3.24463 6.9123 -0.0189685
              CHANNELS 3 Zrotation Xrotation Yrotation
              JOINT LeftArm
              {
                OFFSET 12.8793 -0.0485389 -0.0634723
                CHANNELS 3 Zrotation Xrotation Yrotation
                JOINT LeftForeArm
                {
                  OFFSET 26.4894 0.00252616 -0.136149
                  CHANNELS 3 Zrotation Xrotation Yrotation
                  JOINT LeftHand
                  {
                    OFFSET 26.005 0.0292639 -0.0166184
                    CHANNELS 3 Zrotation Xrotation Yrotation
                    JOINT LeftHandThumb1
                    {
                      OFFSET 2.48905 0.190105 3.12053
                      CHANNELS 3 Zrotation Xrotation Yrotation
                      JOINT LeftHandThumb2
                      {
                        OFFSET 3.68274 0 0
                        CHANNELS 3 Zrotation Xrotation Yrotation
                        JOINT LeftHandThumb3
                        {
                          OFFSET 2.55832 0 0
                          CHANNELS 3 Zrotation Xrotation Yrotation
                          End Site
                          {
                            OFFSET 2.194 0 0
                          }
                        }
                      }
                    }
                    JOINT LeftInHandIndex
                    {
                      OFFSET 3.22368 0.508421 1.97842
                      CHANNELS 3 Zrotation Xrotation Yrotation
                      JOINT LeftHandIndex1
                      {
                        OFFSET 5.21684 -0.091368 0.999158
                        CHANNELS 3 Zrotation Xrotation Yrotation
                        JOINT LeftHandIndex2
                        {
                          OFFSET 3.61937 0 0
                          CHANNELS 3 Zrotation Xrotation Yrotation
                          JOINT LeftHandIndex3
                          {
                            OFFSET 2.0521 0 0
                            CHANNELS 3 Zrotation Xrotation Yrotation
                            End Site
                            {
                              OFFSET 1.805 0 0
                            }
                          }
                        }
                      }
                    }
                    JOINT LeftInHandMiddle
                    {
                      OFFSET 3.38211 0.517263 0.756737
                      CHANNELS 3 Zrotation Xrotation Yrotation
                      JOINT LeftHandMiddle1
                      {
                        OFFSET 5.17411 -0.084 0.313895
                        CHANNELS 3 Zrotation Xrotation Yrotation
                        JOINT LeftHandMiddle2
                        {
                          OFFSET 3.94947 0 0
                          CHANNELS 3 Zrotation Xrotation Yrotation
                          JOINT LeftHandMiddle3
                          {
                            OFFSET 2.47579 0 0
                            CHANNELS 3 Zrotation Xrotation Yrotation
                            End Site
                            {
                              OFFSET 1.975 0 0
                            }
                          }
                        }
                      }
                    }
                    JOINT LeftInHandRing
                    {
                      OFFSET 3.36516 0.537895 -0.128947
                      CHANNELS 3 Zrotation Xrotation Yrotation
                      JOINT LeftHandRing1
                      {
                        OFFSET 4.63474 -0.022105 -0.478947
                        CHANNELS 3 Zrotation Xrotation Yrotation
                        JOINT LeftHandRing2
                        {
                          OFFSET 3.44238 0 0
                          CHANNELS 3 Zrotation Xrotation Yrotation
                          JOINT LeftHandRing3
                          {
                            OFFSET 2.3881 0 0
                            CHANNELS 3 Zrotation Xrotation Yrotation
                            End Site
                            {
                              OFFSET 1.857 0 0
                            }
                          }
                        }
                      }
                    }
                    JOINT LeftInHandPinky
                    {
                      OFFSET 3.16105 0.469368 -1.20179
                      CHANNELS 3 Zrotation Xrotation Yrotation
                      JOINT LeftHandPinky1
                      {
                        OFFSET 4.14105 -0.022105 -1.09053
                        CHANNELS 3 Zrotation Xrotation Yrotation
                        JOINT LeftHandPinky2
                        {
                          OFFSET 2.75653 0 0
                          CHANNELS 3 Zrotation Xrotation Yrotation
                          JOINT LeftHandPinky3
                          {
                            OFFSET 1.74189 0 0
                            CHANNELS 3 Zrotation Xrotation Yrotation
                            End Site
                            {
                              OFFSET 1.645 0 0
                            }
                          }
                        }
                      }
                    }
                  }
                }
              }
            }
          }
        }
      }
    }
  }
}
MOTION
Frames: 2
Frame Time: 0.00833333
7.500000000000000000e+02 0.000000000000000000e+00 0.000000000000000000e+00 0.000000000000000000e+00 0.000000000000000000e+00 0.000000000000000000e+00 3.410683946185586013e+00 3.967101823719812792e+00 1.143021979445611735e-01 -3.941985624646864306e+00 -5.042436140998461269e+00 -6.805252573178490749e+00 4.555805251943306766e-02 2.063888996187535074e+00 -3.010669359477056162e-01 -2.101843878837560187e+00 -3.324886535733021509e-01 1.931433901463829317e-01 1.888600728335658729e+00 -5.944737856711443946e+00 -1.915009726438359428e+00 -4.994532745236920368e-01 -3.216120003105970238e+00 -5.849524914528769770e-01 -7.912481404284148478e-01 3.682970058887965692e+00 2.773589783898491756e+00 -2.122354105048386952e+00 -9.779858160595926719e-01 -4.095912212365754868e-01 -4.505893452854449754e-01 -1.738594882403872166e-01 -1.803928090592123445e-01 -7.356012240949336700e-01 -3.375982095297955232e-01 -2.658291296266728776e-01 2.467560605909991656e-01 1.344520766652670674e-01 -2.229391727037978166e-01 1.298746014990948661e+00 -4.859208418012379571e-01 5.973862886273957784e+00 3.296140465678492060e+00 5.333275561613162186e-01 -7.415792019094159748e+00 3.242863535328686930e-02 -3.296169483482447760e+00 -1.574644006769315152e-01 -1.328512414457666857e+01 5.806774568485176147e+00 -7.812391505651346435e+00 -2.358566902266870002e+01 -1.100443927899739016e+01 -1.499006016780860051e+01 -3.181068482427014121e-01 1.913660158196696326e+00 -4.436231518480620445e-02 0.000000000000000000e+00 0.000000000000000000e+00 0.000000000000000000e+00 -9.696610763510107461e-16 2.209859054809572283e-15 0.000000000000000000e+00 -7.407388405219904633e-17 -6.085691144859112876e-16 0.000000000000000000e+00 4.063900487010442329e-15 1.391057502324130584e-15 -9.342407707274563969e-16 0.000000000000000000e+00 0.000000000000000000e+00 0.000000000000000000e+00 0.000000000000000000e+00 -8.997154600825767597e-16 1.877796576768095729e-15 0.000000000000000000e+00 2.944907667717308981e-16 1.645058894647586009e-15 4.063900487010442329e-15 1.391057502324130584e-15 -9.342407707274563969e-16 0.000000000000000000e+00 -2.447880230971885025e-16 1.281852284341192376e-15 0.000000000000000000e+00 -7.771702154972351268e-16 5.655679093371004791e-16 0.000000000000000000e+00 -7.415032431732771306e-16 -1.307776318629473093e-15 4.063900487010442329e-15 1.391057502324130584e-15 -9.342407707274563969e-16 0.000000000000000000e+00 0.000000000000000000e+00 0.000000000000000000e+00 0.000000000000000000e+00 -1.666668298276615648e-15 3.065990059162221375e-15 0.000000000000000000e+00 5.093671756131942503e-16 3.069862284628678177e-15 4.063900487010442329e-15 1.391057502324130584e-15 -9.342407707274563969e-16 0.000000000000000000e+00 0.000000000000000000e+00 0.000000000000000000e+00 0.000000000000000000e+00 -2.332062972084750848e-15 1.923300491572659911e-15 0.000000000000000000e+00 2.445205855240415720e-15 -3.510443821299483476e-15 6.380343030578994323e-01 1.664507646159028020e-01 3.849139488555810562e+00 -1.504725007282634142e+00 -8.944813364379227139e-01 2.090822340223726261e+00 9.990811591961229254e+00 -9.020376732991033819e+00 8.379301010538799943e+00 -1.248581564393186127e+00 -9.651823418346997530e-01 -2.142650151047582163e+00 0.000000000000000000e+00 0.000000000000000000e+00 0.000000000000000000e+00 2.474492157516332683e-15 -9.051937952048641494e-16 0.000000000000000000e+00 2.686095541414078155e-15 -9.401239718493081363e-16 0.000000000000000000e+00 -1.316140564203528580e-15 -2.000911098786228443e-15 -1.282957330253658553e-15 0.000000000000000000e+00 0.000000000000000000e+00 0.000000000000000000e+00 0.000000000000000000e+00 9.983445485542788140e-16 -2.823746125734082887e-16 0.000000000000000000e+00 5.334772172597323458e-16 7.413813213668416279e-16 -1.316140564203528580e-15 -2.000911098786228443e-15 -1.282957330253658553e-15 0.000000000000000000e+00 -7.489738168902761171e-16 4.521889981252805786e-16 0.000000000000000000e+00 -5.102553717670347191e-15 3.643443425876901007e-15 0.000000000000000000e+00 1.081215988207345125e-15 -1.663893143319864254e-15 -1.316140564203528580e-15 -2.000911098786228443e-15 -1.282957330253658553e-15 0.000000000000000000e+00 0.000000000000000000e+00 0.000000000000000000e+00 0.000000000000000000e+00 -1.235036444356314643e-15 -3.113124314769048250e-16 0.000000000000000000e+00 -4.170602605973211083e-16 1.145874667092322767e-15 -1.316140564203528580e-15 -2.000911098786228443e-15 -1.282957330253658553e-15 0.000000000000000000e+00 0.000000000000000000e+00 0.000000000000000000e+00 0.000000000000000000e+00 -1.316008285697033328e-15 2.073815615106099270e-15 0.000000000000000000e+00 1.151613462788080524e-15 2.984491613580933709e-15
7.500000000000000000e+02 0.000000000000000000e+00 0.000000000000000000e+00 0.000000000000000000e+00 0.000000000000000000e+00 0.000000000000000000e+00 3.362205447547981674e+00 3.995190897174515143e+00 1.514778878218625002e-01 -4.112774165540002080e+00 -5.113039584442748087e+00 -6.934299271679283727e+00 7.440176064646399079e-02 2.090956299461645518e+00 -3.428139210182515328e-01 -1.995040959062134966e+00 -4.783958304514878690e-01 5.058064548447505082e-02 1.827004925634650112e+00 -6.037634973395332061e+00 -1.940126814211058592e+00 -3.851430949803960058e-01 -3.148331992558612402e+00 -6.486196142268240150e-01 -7.997306908041553752e-01 3.676577322638101109e+00 2.739775580761264706e+00 -2.067783807683436059e+00 -8.431632707763470069e-01 -4.266118612597885051e-01 -4.367368400573334308e-01 -1.387019371884830043e-01 -1.807079608989343444e-01 -7.136557071491280713e-01 -2.797619425741460497e-01 -2.616489052315093544e-01 2.420660603865019411e-01 1.387844376335116980e-01 -2.271649844002175955e-01 1.282174084000726744e+00 -4.336300055042675572e-01 5.877137403822127126e+00 3.228289840810795397e+00 5.223659401540858838e-01 -7.460285218879543656e+00 -1.145207502974096569e-02 -3.308458057465116564e+00 -1.119868458442201814e-01 -1.271623651934306309e+01 5.892556432344898454e+00 -7.791567757111511838e+00 -2.310279180522063314e+01 -1.105951491299410705e+01 -1.516955753345292912e+01 -3.138098313730272038e-01 1.825938386971956984e+00 -7.570705168504490712e-02 0.000000000000000000e+00 0.000000000000000000e+00 0.000000000000000000e+00 -8.964691973126073712e-16 2.256427570728210822e-15 0.000000000000000000e+00 3.824413648412747729e-17 -5.781586532861703545e-16 0.000000000000000000e+00 4.016134193438036551e-15 1.346298199354410172e-15 -9.541899413003246327e-16 0.000000000000000000e+00 0.000000000000000000e+00 0.000000000000000000e+00 0.000000000000000000e+00 -8.252931529371540452e-16 2.001853884567407286e-15 0.000000000000000000e+00 3.131302067019529418e-16 1.807749454940815650e-15 4.016134193438036551e-15 1.346298199354410172e-15 -9.541899413003246327e-16 0.000000000000000000e+00 -2.115131330737926103e-16 1.375981945404589375e-15 0.000000000000000000e+00 -7.412948533451628700e-16 7.180785186201588154e-16 0.000000000000000000e+00 -7.371127720803390683e-16 -1.167289281102381852e-15 4.016134193438036551e-15 1.346298199354410172e-15 -9.541899413003246327e-16 0.000000000000000000e+00 0.000000000000000000e+00 0.000000000000000000e+00 0.000000000000000000e+00 -1.631575685114013836e-15 3.112306534062621942e-15 0.000000000000000000e+00 5.378664422806750250e-16 3.163726853270364889e-15 4.016134193438036551e-15 1.346298199354410172e-15 -9.541899413003246327e-16 0.000000000000000000e+00 0.000000000000000000e+00 0.000000000000000000e+00 0.000000000000000000e+00 -2.341660544180798491e-15 2.007206069409310468e-15 0.000000000000000000e+00 2.489135241333227116e-15 -3.380799222436407727e-15 7.335989854817088762e-01 1.965212272462538712e-01 3.830223329857488146e+00 -1.615516701364130059e+00 -8.074102559094615827e-01 2.189333397743874698e+00 9.676623135260337349e+00 -9.014321218313112283e+00 8.593311395549457998e+00 -1.273241251655287565e+00 -9.652954164896051514e-01 -1.946194009034325489e+00 0.000000000000000000e+00 0.000000000000000000e+00 0.000000000000000000e+00 2.477029741470837457e-15 -9.152343423210458101e-16 0.000000000000000000e+00 2.720765352207072952e-15 -9.618166626550241121e-16 0.000000000000000000e+00 -1.299333344401332022e-15 -1.994205077022026234e-15 -1.259896087014042489e-15 0.000000000000000000e+00 0.000000000000000000e+00 0.000000000000000000e+00 0.000000000000000000e+00 9.510769082916998473e-16 -1.625567359386595947e-16 0.000000000000000000e+00 5.111552359796725308e-16 8.304471860553218771e-16 -1.299333344401332022e-15 -1.994205077022026234e-15 -1.259896087014042489e-15 0.000000000000000000e+00 -8.165726166011199146e-16 5.370285316517912543e-16 0.000000000000000000e+00 -5.105537129431523416e-15 3.696664020579291788e-15 0.000000000000000000e+00 1.026548839352150445e-15 -1.657848725002623103e-15 -1.299333344401332022e-15 -1.994205077022026234e-15 -1.259896087014042489e-15 0.000000000000000000e+00 0.000000000000000000e+00 0.000000000000000000e+00 0.000000000000000000e+00 -1.240702060804385933e-15 -1.903245231407354858e-16 0.000000000000000000e+00 -4.012554324794531516e-16 1.127675527066569873e-15 -1.299333344401332022e-15 -1.994205077022026234e-15 -1.259896087014042489e-15 0.000000000000000000e+00 0.000000000000000000e+00 0.000000000000000000e+00 0.000000000000000000e+00 -1.351769446655173727e-15 2.105284930880574726e-15 0.000000000000000000e+00 1.125184755219139254e-15 2.970454056576129533e-15
